<?xml version="1.0" encoding="utf-8"?>
<!-- Generator: Adobe Illustrator 27.0.0, SVG Export Plug-In . SVG Version: 6.00 Build 0)  -->
<svg version="1.1" id="Layer_1" xmlns="http://www.w3.org/2000/svg" xmlns:xlink="http://www.w3.org/1999/xlink" x="0px" y="0px"
	 viewBox="0 0 440 305" style="enable-background:new 0 0 440 305;" xml:space="preserve">
<style type="text/css">
	.st0{fill:none;stroke:#FFFFFF;stroke-width:2;stroke-miterlimit:10;}
	.st1{fill:none;stroke:#FFFFFF;stroke-width:1.5;stroke-miterlimit:10;}
</style>
<g>
	<path class="st0" d="M219.1,79.1c1.5-1.5,3-2.7,4.4-3.7c1.5-1,2.4-1.5,3-1.5c0.8,0,1.2,0.8,1.2,2.4c0,1.9-0.2,3.9-0.6,6
		c-0.4,2.1-1,4.3-1.7,6.3c-1.2,3.5-2.7,7.4-4.7,11.7c-1.9,4.3-3.8,8-5.6,11.3c-1.2,2.1-2.7,4.6-4.6,7.5c-1.5,2.3-2.8,3.9-3.9,5
		c-1.1,1-2.5,1.9-4.1,2.6c-1.4,0.5-2.6,0.9-3.6,1.1c-1.2,0.2-2.2,0.3-3,0.3c-1.3,0-2.4-0.3-3.1-1c-0.8-0.9-1.6-2.4-2.3-4.6
		c-0.8-2.7-1.7-6.2-2.5-10.6s-1.4-8.2-1.7-11.5c-0.2-2.3-0.3-5.4-0.3-9.5c0-7.4,0.8-12,2.4-13.6c0.6-0.6,1.6-1.2,3.1-2
		c1.6-0.8,3.1-1.4,4.6-1.8c1.2-0.3,2.2-0.5,3-0.5c2,0,3,1.1,3,3.3c0,1.2-0.1,3.4-0.4,6.7c-0.4,6.7-0.6,11.9-0.6,15.7
		c0,6.6,0.3,11.6,0.8,14.9c0.3,1.6,0.6,2.7,0.7,3.3c1-1.3,1.9-2.6,2.5-3.7c0.7-1.2,1.4-2.4,2-3.7c1.3-2.7,2.2-4.8,2.8-6.2
		c1.7-4.2,3.1-8.6,4.1-13.3c0.6-3.3,1.4-5.7,2.2-7.1C216.9,81.7,217.9,80.5,219.1,79.1z"/>
	<path class="st0" d="M239.7,119.5l-6.7,14.1h9.9L239.7,119.5C239.8,119.5,239.7,119.5,239.7,119.5z M236.6,110l-2.2-4
		c0.6-0.4,1.1-0.7,1.6-0.9c1.9-0.6,4.1-0.9,6.8-0.9s4.7,0.8,6.2,2.3c1.3,1.3,2.3,3.2,3.1,5.6s1.5,5.8,2.2,10.2
		c0.4,2.3,0.7,3.9,0.9,5.1c0.8,3.2,1.4,5.2,1.7,6.1c0.3,0.9,0.8,2.3,1.5,4.2c0.2,0.6,0.6,1.3,0.9,2.4c0.4,1,0.8,1.9,1.2,2.8
		c0.8,1.9,2,4.4,3.6,7.5c-2,1.4-3.8,2.5-5.2,3.1c-1.4,0.6-2.7,0.9-3.8,0.9c-1.4,0-2.6-0.3-3.6-0.8c-0.9-0.6-1.8-1.4-2.6-2.7
		c-0.9-1.6-1.8-3.9-2.8-6.7c-0.1-0.3-0.2-0.6-0.4-1c-0.1-0.4-0.3-0.9-0.4-1.3c-2.8,1.2-5,1.8-6.6,1.8c-0.9,0-1.7,0-2.3-0.1
		c-0.6,0-3.1-0.1-7.7-0.2l-0.4,0.7c-1.4,2.8-2.6,5-3.8,6.5s-2.5,2.5-4,3.1s-3.4,0.9-5.7,0.9c-1.3,0-2.2-0.1-2.8-0.4
		c-0.6-0.3-0.8-0.8-0.8-1.4c0-0.8,1.3-3,4-6.6c0.9-1.3,1.6-2.3,2.1-3c-2.5-0.5-3.8-1.4-3.8-2.7c0-1.1,1-2.7,3.1-4.8
		c1-1,1.9-1.7,2.7-1.9c0.8-0.3,2.3-0.4,4.4-0.5c1.9-3.6,3.2-5.8,3.7-6.8s1.2-2.2,2.1-3.7c0.8-1.5,1.8-3.2,2.9-5.1
		C233.3,115.7,234.8,113.2,236.6,110z"/>
</g>
<g>
	<path class="st1" d="M52.9,225.5c0.1,0.6-0.3,1.1-0.9,1.2c-15.7,2-24.4,2.3-28.1,1.5c-3.9-0.9-4.1-2.6-1.9-4.8
		c1.5-1.5,4.5-3.2,8.4-4.9c13-5.9,36-12.7,39.8-11.8c4.1,1,1.8,12.2-0.5,23.7c-2,9.7-4.1,19.7-2.6,23c0.4,0.8,1.1,0.9,2.1,0.4
		c6-2.7,18.3-19.4,28.3-32.9c3.7-5.1,7.1-9.7,9.8-13.1c0.4-0.5,1-0.5,1.5-0.2c0.5,0.4,0.5,1,0.2,1.5c-2.7,3.4-6.1,8-9.8,13
		c-10.1,13.8-22.6,30.7-29.1,33.6c-2.3,1-4,0.7-4.9-1.5c-1.8-3.9,0.4-14.3,2.4-24.3c2.2-10.5,4.3-20.6,2.1-21.2
		c-3.5-0.9-25.7,5.8-38.4,11.6c-3.7,1.7-6.5,3.3-7.8,4.5c-0.5,0.5-0.3,0.9,0.8,1.2c3.5,0.8,11.9,0.5,27.4-1.5
		C52.3,224.5,52.8,224.9,52.9,225.5z"/>
	<path class="st1" d="M103.2,243c1.6,1,4.2,0.6,7.2-0.4c3.2-1.1,6.8-3,10-4.8c0.5-0.3,1-0.1,1.3,0.4s0.1,1-0.4,1.3
		c-3.3,1.8-7,3.7-10.3,4.9c-3.6,1.2-6.8,1.6-9,0.2c-0.1,0-0.1-0.1-0.1-0.1c-1.9-2-1.4-4.9,0.1-7.4c0.6-1.1,1.5-2.1,2.3-2.8
		c0.9-0.8,1.9-1.3,2.8-1.5c1.2-0.2,2.2,0.2,2.8,1.4c2.5,5.2-6.5,5.8-6.5,5.8C102.1,240.1,102.5,242.2,103.2,243z M108.2,235
		c-0.2-0.3-0.4-0.4-0.8-0.4c-0.5,0.1-1.2,0.5-1.9,1c-0.7,0.6-1.4,1.4-1.9,2.3c0,0.1-0.1,0.1-0.1,0.2
		C104.7,238,109.3,237.3,108.2,235z"/>
	<path class="st1" d="M124.6,238c0,0.5-0.5,0.8-0.9,0.8c-3.4,0-6.2,5.2-3.1,3.9c0.3-0.1,0.8-0.6,1.5-1.2c1.1-1.2,2.6-3.1,4.1-5.4
		c0.8-2.8,1.7-5.8,2.6-8.8c2.9-9.1,6.6-18,8.8-20.4c0.9-1,1.8-1.2,2.5-0.5c0.2,0.2,0.4,0.5,0.5,0.8c0.8,2.5-2,9.8-5.9,17.3
		c-2.2,4.3-4.7,8.7-7.1,12.2c-1.4,5.4-2.3,9.9-2.1,11.8c0,0.2-0.2,0.4-0.1,0.4c0.5-0.1,0.9,0.2,0.9,0.6c0.1,0.5-0.3,0.9-0.7,1
		c-1.1,0.2-1.6-0.4-1.8-1.7c-0.2-1.6,0.3-4.6,1.1-8.4c-0.6,0.8-1.2,1.6-1.8,2.2c-0.8,0.9-1.5,1.4-2.1,1.7c-1.5,0.6-2.6,0.4-3.2-0.2
		c-0.5-0.4-0.7-1.1-0.7-1.9c0.1-3,2.7-5.3,6.7-5.1C124.3,237.2,124.7,237.6,124.6,238z M133.2,223.9c3.6-7.1,6.4-13.9,5.7-16
		c0-0.1-0.1-0.2-0.1-0.2c-0.1-0.1,0,0.2-0.1,0.3c-2.1,2.2-5.5,10.8-8.4,19.7c-0.4,1.1-0.7,2.2-1,3.3
		C130.7,228.7,132,226.3,133.2,223.9z"/>
	<path class="st1" d="M138.6,235.7c0.3-0.3,0.5-0.5,0.5-0.5c0.4-0.4,1-0.3,1.4,0c0.2,0.2,0.3,0.5,0.3,0.7l0,0c0,0-0.3,4.3,1.7,3.9
		c1.8-0.3,4-2.5,5.6-4c1-1,3.6-3.4,4.5-3.1c1.1,0.7-0.3,3.7-1.1,6.1c3.2-3.7,8-8.7,8.2-4c0.1,3.3,0.5,5.3,1.6,5.8
		c1.2,0.5,3.4-0.4,7.1-2.8c0.4-0.3,1-0.2,1.3,0.3c0.3,0.4,0.2,1-0.3,1.3c-4.3,2.8-7.1,3.8-8.9,3c-1.9-0.9-2.5-3.1-2.7-7.2
		c0-1.2-6.8,7.3-7.4,8.2c-0.2,0.3-0.6,0.5-1,0.4c-0.5-0.1-0.8-0.6-0.7-1.2c0,0,1.5-5.1,2.1-6.6c0,0-0.5,0.6-1.3,1.3
		c-1.8,1.7-4.3,4.1-6.6,4.6c-2.7,0.5-3.6-1.9-3.8-3.8c-2.6,2.2-7.5,6-8.2,3c-0.1-0.5-0.1-1,0.1-1.6c0.3-1.1,1.2-2.2,2.3-3
		c1-0.8,2.3-1.5,3.3-1.7c0.6-0.1,1.1-0.2,1.6,0C138.4,234.7,138.7,235.2,138.6,235.7z M137.4,236.4c-0.1,0-0.4,0-0.6,0
		c-0.8,0.2-1.7,0.7-2.5,1.3s-1.4,1.4-1.6,2.1c-0.1,0.2-0.1,0.4,0,0.6c0.1,0.5,3.3-2.3,5.2-4C137.7,236.5,137.6,236.5,137.4,236.4z"
		/>
	<path class="st1" d="M177.8,214.2c0.1,0,0.2,0,0.4,0.1c0.5,0.2,0.7,0.8,0.5,1.3c0,0-0.6,1.3-1.4,3.4c16.4-0.7,31.9,0.2,32,0.2
		c0.5,0,0.9,0.5,0.9,1s-0.5,0.9-1,0.9c-0.1,0-16.1-0.9-32.6-0.2c-4.7,11.8-15,39.6-11,46.9c0.3,0.5,0.1,1-0.4,1.3s-1,0.1-1.3-0.4
		c-4.3-7.8,5.7-35.3,10.6-47.7c-8.4,0.4-16.7,1.3-23.1,2.9c-5,1.3-6.9,1.6-6.9,1.6c0,0.2,0.9-0.3,2.1-0.3c1.7-0.1,3.7-0.3,5.5-0.6
		c1.6-0.3,2.9-0.2,2.9-0.3c-0.1-0.5,0.3-1,0.8-1.1s1,0.3,1.1,0.8c0.2,1.2-1.8,2.1-4.4,2.6c-1.8,0.3-4,0.6-5.8,0.6
		c-2.1,0.1-3.8-0.3-4-1.1c-0.3-1,1.8-2.3,8.2-4c6.7-1.7,15.5-2.6,24.3-3c1.1-2.6,1.8-4.3,1.8-4.3C177,214.4,177.4,214.2,177.8,214.2
		z"/>
	<path class="st1" d="M226.5,258.3c-0.4-0.4-0.4-1.1,0-1.5c0,0,6.5-6.4,15.3-14.6c-2.2,0.3-4.4,0.6-6.7,1
		c-12.2,2.1-25.2,5.9-36.7,12.3c-0.5,0.3-1.2,0.1-1.4-0.4c-0.3-0.5-0.1-1.2,0.4-1.5c11.8-6.6,24.9-10.4,37.4-12.6
		c3.3-0.6,6.5-1,9.7-1.4c15-13.9,35.3-31.8,43.4-34.9c2.4-0.9,3.8-0.4,4.4,1.2c1.5,3.8-5.1,16.4-10.5,26.9c-1.1,2.2-2.2,4.2-3.2,6.1
		c0.9,0.1,1.8,0.1,2.5,0.2c4.8,0.4,6.6,1.3,6.5,2.6c-0.1,1.5-3.2,2.7-6.7,4c-1.9,0.7-3.9,1.5-5.5,2.3c-1.1,0.5-1.8,0.3-2.2-0.5
		c-0.4-0.9,0.4-3.4,2-6.7c-7.2-0.4-17.9-0.4-29.9,0.9c-9.9,9.1-17.4,16.5-17.4,16.5C227.6,258.7,226.9,258.7,226.5,258.3z
		 M248,239.3c11.4-1.1,21.5-0.9,28.3-0.5c1-2.1,2.3-4.5,3.6-6.9c5.2-10.1,11.6-22.2,10.4-25.1c-0.1-0.3-0.6-0.3-1.7,0.1
		C281.2,209.6,262.6,225.8,248,239.3z M275.3,245.8c1.5-0.7,3.2-1.4,4.9-2c2.8-1.1,5.3-2,5.3-2.2c0,0-1.3-0.1-4.6-0.3
		c-1-0.1-2.1-0.2-3.4-0.2C276.4,243.1,275.6,244.8,275.3,245.8z"/>
	<path class="st1" d="M306,228.8c1.6-2,2.7-3.4,2.7-3.4c0.3-0.4,0.9-0.5,1.3-0.2c0.3,0.2,0.4,0.6,0.3,1c-0.1,0.5-1.3,6.5-3.5,14.3
		c2.8-0.8,5.4-1.7,7.8-2.7c0.5-0.2,1,0,1.3,0.5c0.2,0.5,0,1-0.5,1.3c-2.8,1.2-5.9,2.2-9.2,3.1c-5.8,20.1-17.5,49.2-32.8,29.6
		c-8.1-10.4-7.3-16.7-1.8-20.9c5-3.9,14-5.9,23.2-8c3.3-0.7,6.7-1.5,9.9-2.3c1.3-4.6,2.3-8.6,2.9-11.4c-4.1,4.9-12.2,13.8-15.5,12.3
		c-1.2-0.5-1.5-1.5-1.2-2.9c0.2-0.9,0.7-1.9,1.4-2.9c0.7-1,1.6-2.1,2.6-3C298.2,230,302.7,227.5,306,228.8z M304.2,243.2
		c-2.9,0.7-5.9,1.4-8.8,2.1c-9,2-17.8,4-22.4,7.6c-4.5,3.6-5.1,9,2.1,18.2C288.2,287.8,298.7,262.2,304.2,243.2z M296.3,234.5
		c-0.9,0.9-1.7,1.8-2.3,2.7c-0.6,0.9-1,1.6-1.1,2.2c-0.1,0.4,0,0.6,0.1,0.7c2,0.9,7.7-5.2,11.7-9.9
		C302.2,229.9,298.9,232.1,296.3,234.5z"/>
	<path class="st1" d="M322.1,237.9c0.8-0.9,1.3-1.6,1.3-1.6c0.3-0.4,0.9-0.5,1.3-0.2c0.3,0.2,0.5,0.6,0.4,0.9
		c-0.5,4-0.7,5.5-0.5,5.5c0.4,0.1,1.5-0.6,3.2-1.6c1.5-0.9,3.4-2,5.7-3.1c0.5-0.2,1.1,0,1.3,0.4c0.2,0.5,0,1.1-0.5,1.3
		c-2.3,1.1-4.2,2.2-5.6,3c-2.1,1.2-3.4,2-4.5,1.9c-1.4-0.2-1.8-1.5-1.5-4.5c-1.8,1.8-4.6,4.1-7.8,4.4c-1.8,0.2-2.6-0.6-2.7-1.8
		c-0.1-0.8,0.3-1.9,1-2.9c0.6-0.9,1.5-1.8,2.4-2.5c2.1-1.5,4.5-2,6.2,0.4C322,237.6,322.1,237.7,322.1,237.9z M320.4,238.6
		c-0.9-1.2-2.3-0.8-3.5,0c-0.8,0.6-1.5,1.3-1.9,2c-0.4,0.6-0.7,1.2-0.6,1.6c0,0.1,0.2,0.1,0.6,0.1c2.4-0.2,4.6-1.9,6.2-3.4
		C320.8,238.9,320.5,238.8,320.4,238.6z"/>
	<path class="st1" d="M332.6,242.3c-0.5,0.1-1-0.2-1.2-0.7c-0.3-1.3,2.1-3.8,4.5-6.5c0.6-0.6,1.2-1.3,1.7-1.9c-0.2,0-0.5,0-0.7,0
		c-0.8-0.1-1.5-0.2-2-0.4c-1-0.5-1.3-1.2-0.5-2.2c0.4-0.5,1.5-1.1,3.5-1.8c2.6-0.9,3.8-0.7,4.2,0.3c0.2,0.5,0,1.2-0.5,2
		c1.2-0.2,2.3-0.4,2.8-0.7c0.7-0.4,1.2-0.3,1.5,0.3c0.8,1.3-2.1,4-3.3,5.6c-2.6,3.3-5.9,7.7-6.6,9.3c2.1-0.7,4.4-1.9,6.6-3.2
		c3-1.7,5.5-3.6,6.3-4.4c0.4-0.4,1-0.4,1.4,0s0.4,1,0,1.4c-0.9,0.9-3.6,2.9-6.8,4.8c-2.4,1.4-5,2.7-7.3,3.5
		c-1.2,0.4-1.9,0.1-2.2-0.7c-0.6-1.7,3.8-7.4,7.1-11.7c0.8-1.1,1.7-1.9,2.3-2.4c-1,0.2-2.2,0.4-3.3,0.5c-0.9,1-1.9,2.2-3,3.3
		c-2.1,2.2-4.1,4.4-4.1,4.7C333.4,241.6,333.1,242.1,332.6,242.3z M340.5,229.8c0-0.1-0.4,0.4-1.8,0.8c-0.7,0.3-1.3,0.5-1.7,0.7l0,0
		c0.7,0,1.5,0,2.3,0C340.2,230.5,340.6,229.9,340.5,229.8z"/>
	<path class="st1" d="M350.9,234.7c0.5,0.2,0.8,0.7,0.6,1.2c0,0-1.9,6.3,0.4,5.7c3.5-0.9,7-9.9,7-9.9c0.2-0.5,0.8-0.7,1.2-0.5
		c0.5,0.2,0.7,0.6,0.6,1.1c0,0-2.9,12.3-0.9,12.4c0.9,0,3.1-3.4,5.3-7.7c-0.1-0.2-0.2-0.4-0.3-0.6c-0.6-1.3-1-2.9-1.1-4.4
		c-0.3-4.3,1.4-8.8,4.6-10.4c1.1-0.6,1.9-0.6,2.6-0.2c1,0.6,1.2,2,0.8,3.9c-0.3,1.6-0.9,3.5-1.8,5.6c-0.8,1.9-1.7,3.9-2.7,5.9
		c0.4,0.6,0.9,1.1,1.5,1.6c2.2,1.7,5.7,2,10.7-0.5c0.5-0.2,1,0,1.3,0.4c0.2,0.5,0,1-0.4,1.3c-5.8,2.9-10,2.4-12.7,0.4
		c-0.5-0.4-0.9-0.8-1.3-1.2c-2.5,4.4-5.2,8-6.5,7.9c-2.4-0.1-2.4-4.4-2-8.4c-1.5,2.4-3.4,4.7-5.4,5.3c-5.6,1.4-2.7-8.1-2.7-8.1
		C349.9,234.8,350.4,234.5,350.9,234.7z M368.3,230.2c0.8-2,1.4-3.9,1.6-5.3c0.2-1.1,0.2-1.8,0.1-1.9c0,0-0.3,0-0.7,0.3
		c-2.5,1.3-3.8,5-3.5,8.5c0.1,1,0.3,2,0.6,2.9C367,233.2,367.7,231.7,368.3,230.2z"/>
	<path class="st1" d="M387,237.9c0.8-0.9,1.3-1.6,1.3-1.6c0.3-0.4,0.9-0.5,1.3-0.2c0.3,0.2,0.5,0.6,0.4,0.9c-0.5,4-0.7,5.5-0.5,5.5
		c0.4,0.1,1.5-0.6,3.2-1.6c1.5-0.9,3.4-2,5.7-3.1c0.5-0.2,1.1,0,1.3,0.4c0.2,0.5,0,1.1-0.5,1.3c-2.3,1.1-4.2,2.2-5.6,3
		c-2.1,1.2-3.4,2-4.5,1.9c-1.4-0.2-1.8-1.5-1.5-4.5c-1.8,1.8-4.6,4.1-7.8,4.4c-1.8,0.2-2.6-0.6-2.7-1.8c-0.1-0.8,0.3-1.9,1-2.9
		c0.6-0.9,1.5-1.8,2.4-2.5c2.1-1.5,4.5-2,6.2,0.4C387,237.6,387,237.7,387,237.9z M385.3,238.6c-0.9-1.2-2.3-0.8-3.5,0
		c-0.8,0.6-1.5,1.3-1.9,2c-0.4,0.6-0.7,1.2-0.6,1.6c0,0.1,0.2,0.1,0.6,0.1c2.4-0.2,4.6-1.9,6.2-3.4
		C385.7,238.9,385.5,238.8,385.3,238.6z"/>
	<path class="st1" d="M402.3,246.5c0.2,0.5,0,1.1-0.5,1.2c-1.5,0.6-2.7,0.4-3.5-0.3c-1.4-1.3-1.4-4.5-0.5-8.5
		c0.8-3.7,2.3-8.3,4-12.6c3.5-8.8,8.2-16.7,10.3-16.2c0.3,0.1,0.6,0.2,0.8,0.5c0.6,0.5,1,1.4,1.1,2.7c0.1,1.2,0,2.7-0.5,4.6
		c-1.2,4.5-4.8,11.3-13,20.5c-0.3,0.4-0.5,0.6-0.9,0.9c-0.7,3.4-0.9,5.9,0,6.7c0.3,0.2,0.7,0.2,1.5-0.1
		C401.5,245.8,402.1,246.1,402.3,246.5z M400.6,235.4c6.9-8,10-14,11.1-18c0.5-1.6,0.6-2.9,0.5-3.9c-0.1-0.8-0.3-1.3-0.5-1.5l0,0
		c-1.1-0.3-4.8,7.1-8,15C402.4,229.9,401.4,232.7,400.6,235.4z"/>
</g>
</svg>
