<svg width="159" height="174" viewBox="0 0 159 174" fill="none" xmlns="http://www.w3.org/2000/svg">
<path d="M152.09 133.86L88.04 170.84C85.56 172.27 82.52 172.27 80.04 170.84L16 133.86C13.52 132.43 12 129.79 12 126.93V52.98C12 50.12 13.52 47.48 16 46.05L80.04 9.07C82.52 7.64 85.56 7.64 88.04 9.07L152.09 46.05C154.56 47.48 156.09 50.12 156.09 52.98V126.93C156.09 129.79 154.56 132.43 152.09 133.86Z" stroke="black" stroke-width="2"/>
<path d="M6 40.05L70.04 3.07C72.52 1.64 75.56 1.64 78.04 3.07L142.09 40.05C144.56 41.48 146.09 44.12 146.09 46.98V120.93C146.09 123.79 144.56 126.43 142.09 127.86L78.04 164.84C75.56 166.27 72.52 166.27 70.04 164.84L6 127.86C3.52 126.43 2 123.79 2 120.93V46.98C2 44.12 3.52 41.48 6 40.05Z" stroke="black" stroke-width="2"/>
<path d="M76.5 43.2812C78.2812 41.5625 80 40.1094 81.6562 38.9219C83.3438 37.7344 84.5 37.1406 85.125 37.1406C86.0938 37.1406 86.5781 38.0625 86.5781 39.9062C86.5781 42.0625 86.3281 44.4062 85.8281 46.9375C85.3594 49.4375 84.7031 51.8906 83.8594 54.2969C82.4844 58.3906 80.6719 62.9375 78.4219 67.9375C76.1719 72.9062 73.9844 77.2969 71.8594 81.1094C70.4844 83.5156 68.7031 86.4219 66.5156 89.8281C64.7969 92.4531 63.2656 94.3906 61.9219 95.6406C60.6094 96.8594 59.0312 97.8594 57.1875 98.6406C55.5625 99.2656 54.1562 99.6875 52.9688 99.9062C51.5312 100.156 50.375 100.281 49.5 100.281C47.9375 100.281 46.75 99.9062 45.9375 99.1562C44.9688 98.125 44.0781 96.3281 43.2656 93.7656C42.2969 90.6406 41.3125 86.5156 40.3125 81.3906C39.3438 76.2656 38.6875 71.8125 38.3438 68.0312C38.0938 65.4062 37.9688 61.7188 37.9688 56.9688C37.9688 48.3125 38.9062 43.0469 40.7812 41.1719C41.4375 40.5156 42.6562 39.75 44.4375 38.875C46.25 37.9688 48.0312 37.2812 49.7812 36.8125C51.1562 36.4375 52.3125 36.25 53.25 36.25C55.5625 36.25 56.7188 37.5312 56.7188 40.0938C56.7188 41.4375 56.5781 44.0312 56.2969 47.875C55.7969 55.625 55.5469 61.7031 55.5469 66.1094C55.5469 73.7969 55.875 79.5625 56.5312 83.4062C56.9062 85.25 57.1875 86.5312 57.375 87.25C58.5625 85.6875 59.5469 84.25 60.3281 82.9375C61.1406 81.5938 61.9219 80.1719 62.6719 78.6719C64.2031 75.5469 65.2812 73.125 65.9062 71.4062C67.9062 66.5 69.4844 61.3438 70.6406 55.9375C71.3906 52.0938 72.25 49.3438 73.2188 47.6875C73.9375 46.3125 75.0312 44.8438 76.5 43.2812Z" fill="black"/>
<path d="M99.9688 87.1875L91.3438 105.422H104.094L100.156 87.1875H99.9688ZM95.9375 74.8594L93.0781 69.7031C93.7969 69.1406 94.4688 68.75 95.0938 68.5312C97.5 67.7188 100.406 67.3125 103.812 67.3125C107.25 67.3125 109.906 68.2969 111.781 70.2656C113.406 71.9844 114.734 74.3906 115.766 77.4844C116.797 80.5781 117.75 84.9844 118.625 90.7031C119.094 93.6094 119.5 95.7969 119.844 97.2656C120.938 101.359 121.656 103.984 122 105.141C122.375 106.266 123.031 108.078 123.969 110.578C124.281 111.297 124.688 112.312 125.188 113.625C125.719 114.906 126.219 116.109 126.688 117.234C127.719 119.672 129.281 122.891 131.375 126.891C128.75 128.734 126.531 130.062 124.719 130.875C122.906 131.688 121.25 132.094 119.75 132.094C117.906 132.094 116.359 131.734 115.109 131.016C113.891 130.297 112.781 129.156 111.781 127.594C110.594 125.469 109.406 122.578 108.219 118.922C108.094 118.578 107.938 118.141 107.75 117.609C107.594 117.078 107.406 116.5 107.188 115.875C103.531 117.406 100.688 118.172 98.6562 118.172C97.5 118.172 96.5 118.141 95.6562 118.078C94.9375 118.016 91.6094 117.922 85.6719 117.797L85.2031 118.734C83.4531 122.391 81.8281 125.172 80.3281 127.078C78.8281 128.984 77.0938 130.328 75.125 131.109C73.1875 131.891 70.75 132.281 67.8125 132.281C66.125 132.281 64.9219 132.094 64.2031 131.719C63.4844 131.344 63.125 130.734 63.125 129.891C63.125 128.859 64.8438 126.016 68.2812 121.359C69.5 119.734 70.4062 118.453 71 117.516C67.7188 116.891 66.0781 115.734 66.0781 114.047C66.0781 112.672 67.3906 110.625 70.0156 107.906C71.2656 106.594 72.4219 105.766 73.4844 105.422C74.5781 105.047 76.4688 104.844 79.1562 104.812C81.6562 100.219 83.25 97.2969 83.9375 96.0469C84.625 94.7656 85.5156 93.1719 86.6094 91.2656C87.7031 89.3281 88.9375 87.1406 90.3125 84.7031C91.7188 82.2344 93.5938 78.9531 95.9375 74.8594Z" fill="black"/>
</svg>
